<svg xmlns="http://www.w3.org/2000/svg" width="16.087" height="23.503" viewBox="0 0 16.087 23.503"><g transform="translate(-948.192 -1041)"><path d="M14.234,17.672l6.083-6.088a1.145,1.145,0,0,1,1.624,0,1.159,1.159,0,0,1,0,1.628l-6.892,6.9a1.148,1.148,0,0,1-1.585.034l-6.94-6.926a1.15,1.15,0,0,1,1.624-1.628Z" transform="translate(942.004 1044.058)" fill="#fff" opacity="0.8"/><path d="M14.234,17.672l6.083-6.088a1.145,1.145,0,0,1,1.624,0,1.159,1.159,0,0,1,0,1.628l-6.892,6.9a1.148,1.148,0,0,1-1.585.034l-6.94-6.926a1.15,1.15,0,0,1,1.624-1.628Z" transform="translate(942.004 1037.247)" fill="#fff" opacity="0.6"/><path d="M14.234,17.672l6.083-6.088a1.145,1.145,0,0,1,1.624,0,1.159,1.159,0,0,1,0,1.628l-6.892,6.9a1.148,1.148,0,0,1-1.585.034l-6.94-6.926a1.15,1.15,0,0,1,1.624-1.628Z" transform="translate(942.004 1029.754)" fill="#fff" opacity="0.28"/></g></svg>